<svg width="136" height="30" fill="none" xmlns="http://www.w3.org/2000/svg"><path fill="#D71D24" d="M0 0h136v30H0z"/><path fill-rule="evenodd" clip-rule="evenodd" d="M21.067 1l-4.43 15.204L12.205 1H1.818l10.39 27.178h8.428L31.455 1H21.067zM37.65 24.79l-.843 3.388H26.12L35.99 1h11.165l9.694 27.178H46.165l-.889-3.388H37.65zm1.847-6.452h4.054s-1.017-4.718-1.751-8.29h-.369l-1.934 8.29zM54.016 1l-.085 8.578h6.17l-.17 18.598h10.096l.17-18.598h6.096L76.377 1H54.015zm31.145 23.79l-.844 3.388H73.633L83.504 1h11.163l9.696 27.178H93.677l-.888-3.388h-7.627zm1.847-6.452h4.053s-.698-3.36-1.75-8.29l-.363-.012-1.94 8.302zm37.385-3.175L124.42 1H134l-.215 27.178h-9.581l-8.4-13.812-.083 13.812h-9.58L106.357 1h9.617l8.42 14.163z" fill="#fff"/></svg>